<?xml version="1.0" encoding="iso-8859-1"?>
<!-- Generator: Adobe Illustrator 18.0.0, SVG Export Plug-In . SVG Version: 6.00 Build 0)  -->
<!DOCTYPE svg PUBLIC "-//W3C//DTD SVG 1.1//EN" "http://www.w3.org/Graphics/SVG/1.1/DTD/svg11.dtd">
<svg xmlns="http://www.w3.org/2000/svg" xmlns:xlink="http://www.w3.org/1999/xlink" version="1.1" id="Capa_1" x="0px" y="0px" viewBox="0 0 297 297" style="enable-background:new 0 0 297 297;" xml:space="preserve" width="512px" height="512px">
<path d="M217.619,23.039c-29.615,0-55.477,16.313-69.119,40.416c-13.642-24.103-39.504-40.416-69.119-40.416  C35.61,23.039,0,58.649,0,102.42c0,23.083,7.847,46.557,23.323,69.772c12.014,18.02,28.664,35.957,49.488,53.31  c35.071,29.226,69.645,46.647,71.1,47.375c0.021,0.011,0.05,0.005,0.074,0.013c1.402,0.688,2.946,1.072,4.522,1.072  c1.542,0,3.108-0.349,4.581-1.085c1.455-0.728,36.028-18.149,71.1-47.374c20.824-17.354,37.475-35.289,49.488-53.311  C289.153,148.977,297,125.503,297,102.42C297,58.649,261.39,23.039,217.619,23.039z M20.524,102.42  c0-32.453,26.403-58.856,58.856-58.856c32.454,0,58.856,26.403,58.856,58.856c0,0.785,0.097,1.546,0.263,2.279  c0.029,0.146,0.067,0.307,0.117,0.488l10.146,36.239l-20.507,36.622c-1.743,3.116-1.743,6.913,0.001,10.028l20.4,36.431  l-6.809,23.844C109.839,229.94,20.524,172.3,20.524,102.42z M164.341,242.898l5.226-16.402c0.862-2.707,0.564-5.651-0.824-8.13  l-19.77-35.303l19.77-35.307c1.325-2.369,1.659-5.167,0.928-7.781l-10.876-38.848c0.692-31.856,26.805-57.563,58.824-57.563  c32.453,0,58.856,26.403,58.856,58.856C276.476,166.433,201.532,220.172,164.341,242.898z" fill="#FFFFFF"/>
<g>
</g>
<g>
</g>
<g>
</g>
<g>
</g>
<g>
</g>
<g>
</g>
<g>
</g>
<g>
</g>
<g>
</g>
<g>
</g>
<g>
</g>
<g>
</g>
<g>
</g>
<g>
</g>
<g>
</g>
</svg>
